<?xml version="1.0" encoding="UTF-8"?>
<svg version="1.1" viewBox="0 0 1024 1024" width="1024" height="1024" xmlns="http://www.w3.org/2000/svg">
<path transform="translate(512,136)" d="m0 0 4 2 14 14 11 15 8 14 6 15 3 13v26l-4 17-7 16-13 23-9 19-4 15-1 8 1 110 4-16 7-16 7-12 9-11 11-11 14-9 11-5 14-4 7-1h30l-1 9-5 15-8 16-7 10-10 11-13 10-17 10-17 7-18 5-10 7-6 9-2 7-1 14h2l2-5 10-13 9-7 16-5 20-8 20-11 4-3 5 1 105 54 33 17 20 11 6 7 1 3v8l-4 7-10 6-68 35-36 18-19 10-58 29-19 10-30 15-13 4h-11l-12-4-30-16-16-9-44-24-23-13-30-16-23-13-32-17-18-10-23-13-5-5-3-5v-9l4-6 6-5 32-15 36-16 35-16 41-18 21-8 18 12 14 7 15 5 13 4 8 4 8 9 7 12v-15l-4-10-6-7-14-7-22-6-16-7-13-9-12-11-10-13-9-17-6-19-1-7h27l20 4 12 5 11 6 10 8 11 11 7 10 9 16 5 14 2 8v-114l-4-16-10-21-9-16-8-16-5-14-2-9v-24l4-16 7-17 9-14 11-14 12-12z" fill="#A3E4FA"/>
<path transform="translate(283,648)" d="m0 0 11 6 56 31 23 13 83 46 25 14 12 7 11 4 18 2 16-2 12-5 34-17 19-10 24-12 19-10 34-17 19-10 28-14 15 8 23 12 7 7 3 7v12l-5 8-7 6-20 10-22 12-31 16-22 12-31 16-19 10-23 12-22 12-19 10-11 4-5 1h-19l-14-5-24-14-25-14-19-11-49-28-24-14-26-15-28-16-25-14-23-13-13-9-4-6-1-3v-11l4-8 7-6z" fill="#69C8EE"/>
<path transform="translate(282,567)" d="m0 0 16 8 26 14 18 10 26 14 23 13 30 16 23 13 30 16 14 8 14 4h19l13-4 48-24 19-10 46-23 19-10 58-29 19 9 22 11 8 9 2 6v7l-3 7-5 6-26 14-20 10-19 10-39 20-30 15-19 10-24 12-19 10-27 14-11 4-5 1h-15l-13-4-24-13-23-13-24-13-21-12-54-30-23-13-22-12-23-13-27-15-11-8-4-7v-12l5-8 7-6 19-9z" fill="#69C8EE"/>
<path transform="translate(512,136)" d="m0 0 4 2 14 14 11 15 8 14 6 15 3 13v26l-4 17-7 16-13 23-9 19-4 15-1 8 1 110 4-16 7-16 7-12 9-11 11-11 14-9 11-5 14-4 7-1h30l-1 9-5 15-8 16-7 10-10 11-13 10-17 10-17 7-18 5-10 7-6 9-2 7-1 47-4 4h-7l-4-4-1-50-4-10-6-7-14-7-22-6-16-7-13-9-12-11-10-13-9-17-6-19-1-7h27l20 4 12 5 11 6 10 8 11 11 7 10 9 16 5 14 2 8v-114l-4-16-10-21-9-16-8-16-5-14-2-9v-24l4-16 7-17 9-14 11-14 12-12z" fill="#69C8EE"/>
<path transform="translate(639,226)" d="m0 0h18v11l-3 18-6 20-8 16-9 13-14 14-14 9-12 6-15 5-19 4-8 1-23 1 2-11 6-19 9-21 8-15 8-11 9-10 9-8 14-9 18-8 16-4z" fill="#69C8EE"/>
<path transform="translate(370,226)" d="m0 0h18l19 3 21 7 16 9 9 7 13 13 9 13 12 23 8 21 5 19-1 3-26-2-24-5-16-6-14-7-12-9-12-12-9-14-7-14-6-19-3-19z" fill="#69C8EE"/>
<path transform="translate(527,152)" d="m0 0h3l6 9h-3l-3-2-3-5z" fill="#84D5F4"/>
</svg>
